<?xml version="1.0" encoding="utf-8"?>
<!-- Generator: Adobe Illustrator 25.0.0, SVG Export Plug-In . SVG Version: 6.00 Build 0)  -->
<svg version="1.1" id="Layer_1" xmlns="http://www.w3.org/2000/svg" xmlns:xlink="http://www.w3.org/1999/xlink" x="0px" y="0px"
	 viewBox="0 0 964.84 248.62" style="enable-background:new 0 0 964.84 248.62;" xml:space="preserve">
<style type="text/css">
	.st0{fill:#FFFFFF;}
	.st1{fill:url(#SVGID_1_);}
	.st2{fill:url(#SVGID_2_);}
	.st3{fill:url(#SVGID_3_);}
	.st4{fill:url(#SVGID_4_);}
	.st5{fill:url(#SVGID_5_);}
	.st6{fill:url(#SVGID_6_);}
	.st7{fill:url(#SVGID_7_);}
	.st8{fill:url(#SVGID_8_);}
</style>
<g>
	<g>
		<g>
			<path class="st0" d="M283.19,99.16v14.88h56.58c3.31,0,6.12,1.16,8.45,3.49c2.33,2.33,3.49,5.15,3.49,8.45v19.23
				c0,3.31-1.16,6.12-3.49,8.45c-2.33,2.33-5.15,3.49-8.45,3.49h-61.64c-3.31,0-6.12-1.16-8.45-3.49c-2.33-2.33-3.49-5.14-3.49-8.45
				v-3.44l17-6.28v8.81h51.52v-17.41h-56.58c-3.31,0-6.12-1.16-8.45-3.49c-2.33-2.33-3.49-5.14-3.49-8.45v-16.7
				c0-3.31,1.16-6.12,3.49-8.45c2.33-2.33,5.14-3.49,8.45-3.49h61.64c3.31,0,6.12,1.16,8.45,3.49c2.33,2.33,3.49,5.15,3.49,8.45
				v9.31h-17v-8.4H283.19z"/>
			<path class="st0" d="M449.34,89.79c2.33,2.33,3.49,5.15,3.49,8.45v46.96c0,3.31-1.16,6.12-3.49,8.45
				c-2.33,2.33-5.15,3.49-8.45,3.49h-61.64c-3.31,0-6.12-1.16-8.45-3.49c-2.33-2.33-3.49-5.14-3.49-8.45V98.25
				c0-3.31,1.16-6.12,3.49-8.45c2.33-2.33,5.15-3.49,8.45-3.49h61.64C444.19,86.3,447.01,87.47,449.34,89.79z M435.83,144.3V99.16
				h-51.52v45.14H435.83z"/>
			<path class="st0" d="M485.42,99.16v16.2h56.78v12.85h-56.78v28.95h-17V98.25c0-3.31,1.16-6.12,3.49-8.45
				c2.33-2.33,5.14-3.49,8.45-3.49h71.06v12.85H485.42z"/>
			<path class="st0" d="M643.63,99.16h-34.31v58h-17.01v-58H558.1V86.3h85.53V99.16z"/>
		</g>
	</g>
	<g>
		<linearGradient id="SVGID_1_" gradientUnits="userSpaceOnUse" x1="105.9035" y1="2.4534" x2="105.9035" y2="244.4048">
			<stop  offset="0" style="stop-color:#07D2BE"/>
			<stop  offset="0.5" style="stop-color:#02A0D0"/>
			<stop  offset="1" style="stop-color:#027FD9"/>
		</linearGradient>
		<path class="st1" d="M209.15,174.5l-16.63-13.48l16.67-13.52c3.49-2.84,3.49-8.21,0-11.05L124.16,67.3l-1.5,6.69l-2.8,1.42
			l0.08,0.23l-0.28-0.13l-4.37,2.22l72.21,58.72c6.78,6.13-0.7,12.1-5.81,15.74c-10.53-8.57-98.22-79.91-106.06-86.29l-10.85,8.8
			c7.47,6.07,95.97,78.07,106.06,86.28c-16.11,13.15-49.42,40.2-65.07,53.03c-0.02-0.01-1.82-1.49-1.84-1.5h-0.04
			c-4.13-3.37-41.2-33.57-46.35-37.74c-1.27-1.02-2.84-1.61-4.48-1.6L7.13,173.2c-6.71,0.04-9.69,8.42-4.48,12.63l75.2,61.21
			c6.63,6.11,16.66-7.4,21.65-10.34l-10.88-8.79c-2.85,2.93-7.35,4.36-10.78,1.47c0,0-52.21-42.49-52.21-42.49
			c3.64,0.59,24.47-1.5,27.03,1.58c5.48,4.46,30.08,24.47,35.03,28.53h0.04c11.65,9.49,25.29,20.55,36.91,30.04
			c2.6,2.12,6.33,2.12,8.97,0l75.54-61.51C212.64,182.68,212.64,177.34,209.15,174.5z M187.46,185.55
			c-1.69,1.03-53.59,44.28-55.46,44.79c-5.67,2.96-11.31-4.77-15.43-7.53c15.27-12.4,49.46-40.26,65.11-52.99
			C186.82,173.46,194.22,179.42,187.46,185.55z"/>
		<linearGradient id="SVGID_2_" gradientUnits="userSpaceOnUse" x1="114.5074" y1="2.4533" x2="114.5074" y2="244.4048">
			<stop  offset="0" style="stop-color:#07D2BE"/>
			<stop  offset="0.5" style="stop-color:#02A0D0"/>
			<stop  offset="1" style="stop-color:#027FD9"/>
		</linearGradient>
		<path class="st2" d="M114.51,59.7c9.4-0.13,9.4,14.62,0,14.49C105.11,74.32,105.11,59.57,114.51,59.7 M114.51,52.37
			c-19.06,0.09-19.06,29.06,0,29.15C133.57,81.43,133.56,52.45,114.51,52.37L114.51,52.37z"/>
		<linearGradient id="SVGID_3_" gradientUnits="userSpaceOnUse" x1="113.8723" y1="2.4532" x2="113.8723" y2="244.4047">
			<stop  offset="0" style="stop-color:#07D2BE"/>
			<stop  offset="0.5" style="stop-color:#02A0D0"/>
			<stop  offset="1" style="stop-color:#027FD9"/>
		</linearGradient>
		<path class="st3" d="M217.13,62.8l-75.2-61.21c-6.62-6.1-16.66,7.4-21.65,10.34l10.88,8.79c2.85-2.93,7.35-4.36,10.78-1.47
			c0,0,52.21,42.49,52.21,42.49c-3.64-0.59-24.47,1.5-27.03-1.58c-5.48-4.46-30.08-24.47-35.03-28.53h-0.04
			c-11.66-9.49-25.29-20.55-36.91-30.04c-2.6-2.12-6.33-2.12-8.97,0L10.62,63.1c-3.49,2.84-3.49,8.18,0,11.02L27.25,87.6
			l-16.67,13.52c-3.49,2.84-3.49,8.21,0,11.05l83.27,67.73l8.71-10.57l-70.28-57.15c-6.78-6.13,0.7-12.1,5.81-15.74
			c10.53,8.57,98.22,79.91,106.06,86.29l10.85-8.8c-7.47-6.07-95.96-78.07-106.06-86.28c16.11-13.15,49.42-40.2,65.07-53.03
			c0.02,0.01,1.82,1.49,1.84,1.5h0.04c4.08,3.34,41.25,33.6,46.35,37.74c1.27,1.02,2.84,1.61,4.48,1.6l45.92-0.03
			C219.35,75.39,222.33,67,217.13,62.8z M96.97,30.87C85.45,40.25,50.15,68.99,38.09,78.8c-5.12-3.66-12.55-9.58-5.78-15.73
			c0,0,53.85-43.83,53.85-43.83c5.97-5.14,12.54,3.33,17.04,6.57L96.97,30.87z"/>
		<linearGradient id="SVGID_4_" gradientUnits="userSpaceOnUse" x1="105.2686" y1="2.4537" x2="105.2686" y2="244.4052">
			<stop  offset="0" style="stop-color:#07D2BE"/>
			<stop  offset="0.5" style="stop-color:#02A0D0"/>
			<stop  offset="1" style="stop-color:#027FD9"/>
		</linearGradient>
		<path class="st4" d="M105.27,174.43c9.4-0.13,9.4,14.62,0,14.49C95.87,189.05,95.87,174.3,105.27,174.43 M105.27,167.1
			c-19.06,0.09-19.06,29.06,0,29.15C124.33,196.16,124.33,167.18,105.27,167.1L105.27,167.1z"/>
	</g>
	<g>
		<g>
			<path d="M667.67,99.16v14.88h56.58c3.31,0,6.12,1.16,8.45,3.49c2.33,2.33,3.49,5.15,3.49,8.45v19.23c0,3.31-1.16,6.12-3.49,8.45
				c-2.33,2.33-5.15,3.49-8.45,3.49h-61.64c-3.31,0-6.12-1.16-8.45-3.49c-2.33-2.33-3.49-5.14-3.49-8.45v-3.44l17-6.28v8.81h51.52
				v-17.41h-56.58c-3.31,0-6.12-1.16-8.45-3.49c-2.33-2.33-3.49-5.15-3.49-8.45v-16.7c0-3.31,1.16-6.12,3.49-8.45
				c2.33-2.33,5.15-3.49,8.45-3.49h61.64c3.31,0,6.12,1.16,8.45,3.49c2.33,2.33,3.49,5.15,3.49,8.45v9.31h-17v-8.4H667.67z"/>
			<path d="M770.2,157.15h-17V86.3h17V157.15z"/>
			<path d="M868.28,99.16h-34.31v58h-17v-58h-34.21V86.3h85.53V99.16z"/>
			<path d="M953.2,114.04v12.86h-56.78v17.41h68.42v12.85h-73.48c-3.31,0-6.12-1.16-8.45-3.49c-2.33-2.33-3.49-5.14-3.49-8.45V98.25
				c0-3.31,1.16-6.12,3.49-8.45c2.33-2.33,5.14-3.49,8.45-3.49h71.05v12.86h-65.99v14.88H953.2z"/>
		</g>
		<g>
			<linearGradient id="SVGID_5_" gradientUnits="userSpaceOnUse" x1="807.754" y1="96.9377" x2="807.754" y2="142.6631">
				<stop  offset="0" style="stop-color:#07D2BE"/>
				<stop  offset="0.5" style="stop-color:#02A0D0"/>
				<stop  offset="1" style="stop-color:#027FD9"/>
			</linearGradient>
			<path class="st5" d="M667.67,99.16v14.88h56.58c3.31,0,6.12,1.16,8.45,3.49c2.33,2.33,3.49,5.15,3.49,8.45v19.23
				c0,3.31-1.16,6.12-3.49,8.45c-2.33,2.33-5.15,3.49-8.45,3.49h-61.64c-3.31,0-6.12-1.16-8.45-3.49c-2.33-2.33-3.49-5.14-3.49-8.45
				v-3.44l17-6.28v8.81h51.52v-17.41h-56.58c-3.31,0-6.12-1.16-8.45-3.49c-2.33-2.33-3.49-5.15-3.49-8.45v-16.7
				c0-3.31,1.16-6.12,3.49-8.45c2.33-2.33,5.15-3.49,8.45-3.49h61.64c3.31,0,6.12,1.16,8.45,3.49c2.33,2.33,3.49,5.15,3.49,8.45
				v9.31h-17v-8.4H667.67z"/>
			<linearGradient id="SVGID_6_" gradientUnits="userSpaceOnUse" x1="807.754" y1="96.9377" x2="807.754" y2="142.6631">
				<stop  offset="0" style="stop-color:#07D2BE"/>
				<stop  offset="0.5" style="stop-color:#02A0D0"/>
				<stop  offset="1" style="stop-color:#027FD9"/>
			</linearGradient>
			<path class="st6" d="M770.2,157.15h-17V86.3h17V157.15z"/>
			<linearGradient id="SVGID_7_" gradientUnits="userSpaceOnUse" x1="807.754" y1="96.9377" x2="807.754" y2="142.6631">
				<stop  offset="0" style="stop-color:#07D2BE"/>
				<stop  offset="0.5" style="stop-color:#02A0D0"/>
				<stop  offset="1" style="stop-color:#027FD9"/>
			</linearGradient>
			<path class="st7" d="M868.28,99.16h-34.31v58h-17v-58h-34.21V86.3h85.53V99.16z"/>
			<linearGradient id="SVGID_8_" gradientUnits="userSpaceOnUse" x1="807.754" y1="96.9377" x2="807.754" y2="142.6631">
				<stop  offset="0" style="stop-color:#07D2BE"/>
				<stop  offset="0.5" style="stop-color:#02A0D0"/>
				<stop  offset="1" style="stop-color:#027FD9"/>
			</linearGradient>
			<path class="st8" d="M953.2,114.04v12.86h-56.78v17.41h68.42v12.85h-73.48c-3.31,0-6.12-1.16-8.45-3.49
				c-2.33-2.33-3.49-5.14-3.49-8.45V98.25c0-3.31,1.16-6.12,3.49-8.45c2.33-2.33,5.14-3.49,8.45-3.49h71.05v12.86h-65.99v14.88
				H953.2z"/>
		</g>
	</g>
</g>
</svg>
