<?xml version="1.0" encoding="utf-8"?>
<!-- Generator: Adobe Illustrator 25.0.0, SVG Export Plug-In . SVG Version: 6.00 Build 0)  -->
<svg version="1.1" id="Layer_1" xmlns="http://www.w3.org/2000/svg" xmlns:xlink="http://www.w3.org/1999/xlink" x="0px" y="0px"
	 viewBox="0 0 1117.43 287.94" style="enable-background:new 0 0 1117.43 287.94;" xml:space="preserve">
<style type="text/css">
	.st0{fill:#202D3F;}
	.st1{fill:url(#SVGID_1_);}
	.st2{fill:url(#SVGID_2_);}
	.st3{fill:url(#SVGID_3_);}
	.st4{fill:url(#SVGID_4_);}
	.st5{fill:url(#SVGID_5_);}
	.st6{fill:url(#SVGID_6_);}
	.st7{fill:url(#SVGID_7_);}
	.st8{fill:url(#SVGID_8_);}
</style>
<g>
	<g>
		<g>
			<path class="st0" d="M327.98,114.84v17.23h65.53c3.83,0,7.09,1.35,9.79,4.04c2.7,2.7,4.04,5.96,4.04,9.79v22.27
				c0,3.83-1.35,7.09-4.04,9.79c-2.7,2.7-5.96,4.04-9.79,4.04h-71.39c-3.83,0-7.09-1.35-9.79-4.04c-2.7-2.7-4.04-5.96-4.04-9.79
				v-3.99l19.69-7.27v10.2h59.67v-20.16h-65.53c-3.83,0-7.09-1.35-9.79-4.04c-2.7-2.7-4.04-5.96-4.04-9.79v-19.34
				c0-3.83,1.35-7.09,4.04-9.79c2.7-2.7,5.96-4.04,9.79-4.04h71.39c3.83,0,7.09,1.35,9.79,4.04c2.7,2.7,4.04,5.96,4.04,9.79v10.78
				h-19.69v-9.73H327.98z"/>
			<path class="st0" d="M520.4,103.99c2.7,2.7,4.04,5.96,4.04,9.79v54.39c0,3.83-1.35,7.09-4.04,9.79c-2.7,2.7-5.96,4.04-9.79,4.04
				h-71.39c-3.83,0-7.09-1.35-9.79-4.04c-2.7-2.7-4.04-5.96-4.04-9.79v-54.39c0-3.83,1.35-7.09,4.04-9.79
				c2.7-2.7,5.96-4.04,9.79-4.04h71.39C514.44,99.95,517.71,101.3,520.4,103.99z M504.75,167.12v-52.28h-59.67v52.28H504.75z"/>
			<path class="st0" d="M562.19,114.84v18.76h65.76v14.89h-65.76v33.53H542.5v-68.22c0-3.83,1.35-7.09,4.04-9.79
				c2.7-2.7,5.96-4.04,9.79-4.04h82.29v14.89H562.19z"/>
			<path class="st0" d="M745.41,114.84h-39.74v67.17h-19.7v-67.17h-39.62V99.95h99.06V114.84z"/>
		</g>
	</g>
	<g>
		<linearGradient id="SVGID_1_" gradientUnits="userSpaceOnUse" x1="122.6514" y1="2.8414" x2="122.6514" y2="283.0559">
			<stop  offset="0" style="stop-color:#07D2BE"/>
			<stop  offset="0.5" style="stop-color:#02A0D0"/>
			<stop  offset="1" style="stop-color:#027FD9"/>
		</linearGradient>
		<path class="st1" d="M242.23,202.09l-19.26-15.61l19.3-15.65c4.04-3.29,4.04-9.51,0-12.8l-98.48-80.09l-1.74,7.74l-3.24,1.65
			l0.09,0.27l-0.33-0.15l-5.06,2.57l83.63,68.01c7.85,7.09-0.81,14.01-6.73,18.23c-12.2-9.92-113.75-92.54-122.83-99.93L75.02,86.52
			c8.65,7.03,111.14,90.41,122.83,99.92c-18.66,15.23-57.23,46.55-75.37,61.42c-0.03-0.01-2.1-1.72-2.13-1.74h-0.04
			c-4.79-3.9-47.72-38.88-53.69-43.71c-1.47-1.18-3.29-1.86-5.19-1.86l-53.18,0.03c-7.77,0.04-11.22,9.75-5.19,14.62l87.09,70.89
			c7.68,7.07,19.29-8.58,25.08-11.97l-12.6-10.18c-3.3,3.4-8.51,5.04-12.48,1.7c0,0-60.47-49.21-60.47-49.21
			c4.22,0.69,28.33-1.73,31.31,1.82c6.35,5.17,34.83,28.34,40.57,33.05h0.04c13.5,10.99,29.29,23.79,42.74,34.79
			c3.01,2.45,7.33,2.45,10.39,0l87.48-71.24C246.27,211.57,246.27,205.38,242.23,202.09z M217.11,214.89
			c-1.96,1.19-62.06,51.28-64.23,51.87c-6.57,3.43-13.1-5.52-17.87-8.72c17.69-14.36,57.28-46.63,75.41-61.37
			C216.36,200.89,224.93,207.79,217.11,214.89z"/>
		<linearGradient id="SVGID_2_" gradientUnits="userSpaceOnUse" x1="132.616" y1="2.8412" x2="132.616" y2="283.0562">
			<stop  offset="0" style="stop-color:#07D2BE"/>
			<stop  offset="0.5" style="stop-color:#02A0D0"/>
			<stop  offset="1" style="stop-color:#027FD9"/>
		</linearGradient>
		<path class="st2" d="M132.62,69.14c10.88-0.15,10.88,16.93,0,16.78C121.74,86.07,121.74,68.99,132.62,69.14 M132.62,60.65
			c-22.07,0.1-22.07,33.66,0,33.76C154.69,94.31,154.69,60.75,132.62,60.65L132.62,60.65z"/>
		<linearGradient id="SVGID_3_" gradientUnits="userSpaceOnUse" x1="131.8805" y1="2.8412" x2="131.8805" y2="283.0558">
			<stop  offset="0" style="stop-color:#07D2BE"/>
			<stop  offset="0.5" style="stop-color:#02A0D0"/>
			<stop  offset="1" style="stop-color:#027FD9"/>
		</linearGradient>
		<path class="st3" d="M251.46,72.73L164.37,1.84c-7.67-7.06-19.29,8.57-25.08,11.97l12.6,10.18c3.3-3.4,8.51-5.04,12.48-1.7
			c0,0,60.47,49.21,60.47,49.21c-4.22-0.69-28.33,1.73-31.31-1.82c-6.35-5.17-34.83-28.34-40.57-33.05h-0.04
			c-13.5-10.99-29.28-23.8-42.74-34.79c-3.01-2.45-7.33-2.45-10.39,0L12.3,73.08c-4.04,3.29-4.04,9.48,0,12.77l19.26,15.61
			l-19.3,15.65c-4.04,3.29-4.04,9.51,0,12.8l96.44,78.44l10.08-12.24l-81.4-66.19c-7.85-7.09,0.81-14.01,6.73-18.23
			c12.2,9.92,113.75,92.54,122.83,99.93l12.56-10.19c-8.65-7.03-111.14-90.41-122.83-99.92c18.66-15.23,57.23-46.55,75.37-61.42
			c0.03,0.01,2.1,1.72,2.13,1.74h0.04c4.72,3.86,47.77,38.91,53.69,43.71c1.47,1.18,3.29,1.86,5.19,1.86l53.18-0.03
			C254.04,87.31,257.49,77.6,251.46,72.73z M112.31,35.75C98.96,46.62,58.09,79.91,44.12,91.27c-5.93-4.23-14.53-11.09-6.7-18.22
			c0,0,62.37-50.76,62.37-50.76c6.92-5.96,14.52,3.85,19.74,7.61L112.31,35.75z"/>
		<linearGradient id="SVGID_4_" gradientUnits="userSpaceOnUse" x1="121.9162" y1="2.8421" x2="121.9162" y2="283.0562">
			<stop  offset="0" style="stop-color:#07D2BE"/>
			<stop  offset="0.5" style="stop-color:#02A0D0"/>
			<stop  offset="1" style="stop-color:#027FD9"/>
		</linearGradient>
		<path class="st4" d="M121.92,202.02c10.88-0.15,10.88,16.93,0,16.78C111.04,218.94,111.04,201.86,121.92,202.02 M121.92,193.53
			c-22.07,0.1-22.07,33.66,0,33.76C143.99,227.18,143.99,193.62,121.92,193.53L121.92,193.53z"/>
	</g>
	<g>
		<g>
			<path d="M773.26,114.84v17.23h65.53c3.83,0,7.09,1.35,9.79,4.04c2.7,2.7,4.04,5.96,4.04,9.79v22.27c0,3.83-1.35,7.09-4.04,9.79
				c-2.7,2.7-5.96,4.04-9.79,4.04H767.4c-3.83,0-7.09-1.35-9.79-4.04c-2.7-2.7-4.04-5.96-4.04-9.79v-3.99l19.69-7.27v10.2h59.67
				v-20.16H767.4c-3.83,0-7.09-1.35-9.79-4.04c-2.7-2.7-4.04-5.96-4.04-9.79v-19.34c0-3.83,1.35-7.09,4.04-9.79
				c2.7-2.7,5.96-4.04,9.79-4.04h71.39c3.83,0,7.09,1.35,9.79,4.04c2.7,2.7,4.04,5.96,4.04,9.79v10.78h-19.69v-9.73H773.26z"/>
			<path d="M892.01,182.01h-19.69V99.95h19.69V182.01z"/>
			<path d="M1005.59,114.84h-39.74v67.17h-19.69v-67.17h-39.62V99.95h99.06V114.84z"/>
			<path d="M1103.94,132.07v14.89h-65.76v20.16h79.24v14.89h-85.11c-3.83,0-7.09-1.35-9.79-4.04c-2.7-2.7-4.04-5.96-4.04-9.79
				v-54.39c0-3.83,1.35-7.09,4.04-9.79c2.7-2.7,5.96-4.04,9.79-4.04h82.29v14.89h-76.43v17.23H1103.94z"/>
		</g>
		<g>
			<linearGradient id="SVGID_5_" gradientUnits="userSpaceOnUse" x1="935.4951" y1="112.2678" x2="935.4951" y2="165.2245">
				<stop  offset="0" style="stop-color:#07D2BE"/>
				<stop  offset="0.5" style="stop-color:#02A0D0"/>
				<stop  offset="1" style="stop-color:#027FD9"/>
			</linearGradient>
			<path class="st5" d="M773.26,114.84v17.23h65.53c3.83,0,7.09,1.35,9.79,4.04c2.7,2.7,4.04,5.96,4.04,9.79v22.27
				c0,3.83-1.35,7.09-4.04,9.79c-2.7,2.7-5.96,4.04-9.79,4.04H767.4c-3.83,0-7.09-1.35-9.79-4.04c-2.7-2.7-4.04-5.96-4.04-9.79
				v-3.99l19.69-7.27v10.2h59.67v-20.16H767.4c-3.83,0-7.09-1.35-9.79-4.04c-2.7-2.7-4.04-5.96-4.04-9.79v-19.34
				c0-3.83,1.35-7.09,4.04-9.79c2.7-2.7,5.96-4.04,9.79-4.04h71.39c3.83,0,7.09,1.35,9.79,4.04c2.7,2.7,4.04,5.96,4.04,9.79v10.78
				h-19.69v-9.73H773.26z"/>
			<linearGradient id="SVGID_6_" gradientUnits="userSpaceOnUse" x1="935.4951" y1="112.2678" x2="935.4951" y2="165.2245">
				<stop  offset="0" style="stop-color:#07D2BE"/>
				<stop  offset="0.5" style="stop-color:#02A0D0"/>
				<stop  offset="1" style="stop-color:#027FD9"/>
			</linearGradient>
			<path class="st6" d="M892.01,182.01h-19.69V99.95h19.69V182.01z"/>
			<linearGradient id="SVGID_7_" gradientUnits="userSpaceOnUse" x1="935.4951" y1="112.2678" x2="935.4951" y2="165.2245">
				<stop  offset="0" style="stop-color:#07D2BE"/>
				<stop  offset="0.5" style="stop-color:#02A0D0"/>
				<stop  offset="1" style="stop-color:#027FD9"/>
			</linearGradient>
			<path class="st7" d="M1005.59,114.84h-39.74v67.17h-19.69v-67.17h-39.62V99.95h99.06V114.84z"/>
			<linearGradient id="SVGID_8_" gradientUnits="userSpaceOnUse" x1="935.4951" y1="112.2678" x2="935.4951" y2="165.2245">
				<stop  offset="0" style="stop-color:#07D2BE"/>
				<stop  offset="0.5" style="stop-color:#02A0D0"/>
				<stop  offset="1" style="stop-color:#027FD9"/>
			</linearGradient>
			<path class="st8" d="M1103.94,132.07v14.89h-65.76v20.16h79.24v14.89h-85.11c-3.83,0-7.09-1.35-9.79-4.04
				c-2.7-2.7-4.04-5.96-4.04-9.79v-54.39c0-3.83,1.35-7.09,4.04-9.79c2.7-2.7,5.96-4.04,9.79-4.04h82.29v14.89h-76.43v17.23H1103.94
				z"/>
		</g>
	</g>
</g>
</svg>
