<?xml version="1.0" encoding="utf-8"?>
<!-- Generator: Adobe Illustrator 25.0.0, SVG Export Plug-In . SVG Version: 6.00 Build 0)  -->
<svg 
	version="1.1" 
	id="Layer_1" 
	width="500"
	height="100"
	xmlns="http://www.w3.org/2000/svg" 
	xmlns:xlink="http://www.w3.org/1999/xlink" 
	x="0px" 
	y="0px"
	viewBox="0 0 125 25" 
	xml:space="preserve"
>
<style type="text/css">
	.st0{display:none;fill:#17161A;}
	.st1{display:none;fill:#02A0D0;}
	.st2{fill:#000000;}
	.st3{fill:url(#SVGID_1_);}
	.st4{fill:url(#SVGID_2_);}
	.st5{fill:url(#SVGID_3_);}
	.st6{fill:url(#SVGID_4_);}
	.st7{fill:url(#SVGID_5_);}
	.st8{fill:url(#SVGID_6_);}
	.st9{fill:url(#SVGID_7_);}
	.st10{fill:url(#SVGID_8_);}
</style>
<path class="st0" d="M39.9,23c-1.6,0-2.9-0.3-4.1-1c-1.2-0.6-2.1-1.6-2.7-2.7c-0.6-1.2-1-2.6-1-4.1V9.8c0-1.5,0.3-2.9,1-4.1
	c0.7-1.2,1.6-2.1,2.8-2.8C37,2.3,38.4,2,40,2h3.2c1.5,0,2.9,0.3,4,0.9c1.2,0.6,2.1,1.5,2.7,2.6c0.6,1.1,1,2.4,1,3.9h-4.1
	c0-1.2-0.3-2.1-1-2.8c-0.6-0.7-1.5-1.1-2.6-1.1H40c-1.1,0-2.1,0.4-2.7,1.2c-0.7,0.8-1,1.9-1,3.2v5c0,1.3,0.3,2.4,1,3.2
	c0.7,0.8,1.6,1.2,2.6,1.2h3.3c1.1,0,1.9-0.4,2.6-1.2c0.7-0.8,1-1.9,1-3.2h4.1c0,1.6-0.3,3-1,4.2c-0.6,1.2-1.6,2.1-2.7,2.8
	c-1.2,0.6-2.5,1-4.1,1H39.9z"/>
<path class="st0" d="M53.5,7.9h4v1.9c0.4-0.6,1-1.1,1.7-1.4c0.8-0.4,1.6-0.6,2.4-0.6h2.2v3.6h-2.2c-1.1,0-2,0.3-2.8,1
	c-0.7,0.6-1.1,1.5-1.1,2.5V23h-4.3V7.9z"/>
<path class="st0" d="M73,23c-1.3,0-2.4-0.2-3.4-0.7c-1-0.5-1.7-1.1-2.3-1.9c-0.6-0.8-0.8-1.8-0.8-2.9v-3.8c0-1.2,0.3-2.2,0.8-3.1
	c0.6-0.9,1.3-1.6,2.3-2.1c1-0.5,2.1-0.7,3.4-0.7h2.5c2,0,3.5,0.5,4.7,1.6c1.2,1.1,1.8,2.5,1.8,4.2v3.1H70.6v0.7
	c0,0.6,0.2,1.2,0.6,1.6c0.4,0.4,1,0.6,1.7,0.6h2.4c0.7,0,1.3-0.1,1.7-0.4c0.4-0.3,0.7-0.7,0.7-1.2h4.1c0,1-0.3,1.8-0.8,2.6
	s-1.3,1.4-2.3,1.8c-1,0.4-2.1,0.6-3.4,0.6H73z M77.8,13.9v-0.2c0-0.8-0.2-1.4-0.6-1.8c-0.4-0.5-1-0.7-1.7-0.7H73
	c-0.7,0-1.3,0.2-1.8,0.7c-0.4,0.5-0.7,1.1-0.7,1.9v0.1H77.8z"/>
<path class="st0" d="M89.7,23c-1.6,0-2.8-0.4-3.8-1.1c-1-0.8-1.4-1.8-1.4-3v-1.1c0-1.2,0.5-2.2,1.5-3c1-0.8,2.3-1.1,3.9-1.1h1.8
	c0.5,0,1.1,0.1,1.7,0.2c0.6,0.1,1.1,0.3,1.6,0.6v-1.5c0-0.5-0.2-0.9-0.5-1.2c-0.3-0.3-0.7-0.5-1.3-0.5h-2.6c-0.6,0-1,0.1-1.3,0.4
	c-0.3,0.3-0.5,0.6-0.5,1h-3.9c0-1.4,0.5-2.6,1.6-3.4c1.1-0.9,2.5-1.3,4.2-1.3h2.6c1.8,0,3.2,0.5,4.2,1.4c1.1,0.9,1.6,2.1,1.6,3.6
	v9.9h-3.8V21c-0.5,0.6-1.1,1.1-1.8,1.5c-0.7,0.4-1.4,0.5-2.1,0.5H89.7z M91.9,19.9c0.7,0,1.4-0.2,2-0.6c0.6-0.4,1-0.9,1.3-1.5v-0.5
	c-0.3-0.2-0.8-0.4-1.3-0.6c-0.6-0.1-1.2-0.2-1.8-0.2h-1.9c-0.5,0-0.9,0.1-1.2,0.4c-0.3,0.2-0.4,0.5-0.4,0.9v0.8
	c0,0.4,0.2,0.7,0.5,0.9c0.3,0.2,0.8,0.4,1.3,0.4H91.9z"/>
<path class="st1" d="M107.8,23c-1.8,0-3.3-0.5-4.4-1.4c-1.1-0.9-1.7-2.2-1.7-3.7h4c0,0.5,0.2,1,0.5,1.3c0.4,0.3,0.9,0.5,1.5,0.5h2.7
	c1.2,0,1.8-0.3,1.8-1v-0.5c0-0.2-0.1-0.4-0.3-0.5c-0.2-0.2-0.5-0.3-0.8-0.4l-5.2-0.9c-1.2-0.2-2.2-0.6-2.9-1.3
	c-0.7-0.7-1.1-1.4-1.1-2.3v-1c0-1.3,0.5-2.2,1.6-2.9c1.1-0.7,2.5-1.1,4.4-1.1h2.3c1.7,0,3,0.4,4.1,1.3c1,0.9,1.6,2,1.6,3.4h-4
	c0-0.4-0.1-0.8-0.5-1c-0.3-0.3-0.7-0.4-1.1-0.4H108c-1.3,0-2,0.3-2,0.9v0.5c0,0.2,0.1,0.4,0.2,0.6c0.2,0.1,0.4,0.2,0.8,0.3l5.5,1
	c1.1,0.2,2.1,0.6,2.8,1.3c0.7,0.6,1.1,1.3,1.1,2.1v1.1c0,1.3-0.5,2.3-1.6,3c-1.1,0.7-2.5,1.1-4.3,1.1H107.8z"/>
<path class="st0" d="M125.7,23c-1.3,0-2.5-0.2-3.5-0.7c-1-0.5-1.8-1.2-2.4-2.1c-0.5-0.9-0.8-1.9-0.8-3.1v-3.4c0-1.2,0.3-2.2,0.9-3.1
	c0.6-0.9,1.4-1.6,2.4-2.1c1-0.5,2.2-0.7,3.5-0.7h2.8c1.3,0,2.5,0.2,3.5,0.7c1,0.5,1.8,1.2,2.4,2.1c0.6,0.9,0.9,1.9,0.9,3.1v3.4
	c0,1.2-0.3,2.2-0.9,3.1c-0.6,0.9-1.4,1.6-2.4,2.1c-1,0.5-2.2,0.7-3.5,0.7H125.7z M128.5,19.6c0.8,0,1.4-0.2,1.9-0.7
	c0.5-0.5,0.7-1.2,0.7-2V14c0-0.8-0.2-1.4-0.7-1.9c-0.5-0.5-1.1-0.8-1.8-0.8h-2.7c-0.8,0-1.4,0.3-1.8,0.8c-0.5,0.5-0.7,1.1-0.7,1.9
	v2.8c0,0.8,0.2,1.5,0.7,2c0.5,0.5,1.1,0.7,1.8,0.7H128.5z"/>
<path class="st0" d="M140.4,11.6h-2.5V8.1h2.5v-1c0-1.6,0.5-2.9,1.5-3.8c1-0.9,2.4-1.4,4.2-1.4h2.1v3.5h-2c-0.6,0-1.1,0.1-1.4,0.4
	c-0.3,0.3-0.4,0.7-0.4,1.3v0.9h3.5v3.5h-3.5V23h-4V11.6z"/>
<path class="st0" d="M159,23c-1.9,0-3.2-0.4-4.1-1.2c-0.9-0.8-1.3-2-1.3-3.7v-6.5h-2.8V8.2h2.9V3.7h4.2v4.5h4.1v3.4h-4.1v6.3
	c0,0.6,0.1,1,0.3,1.2c0.2,0.3,0.6,0.4,1.1,0.4h2.7V23H159z"/>
<path class="st1" d="M7.7,1.6C7.2,2.5,6.6,3.6,6.4,4L6,4.8l0.4,0.8C6.7,6.3,6.8,6.4,7,6.2C7.1,6,8,4.6,8.9,3l1.7-3H9.6H8.7L7.7,1.6z
	"/>
<path class="st1" d="M9.5,3.7L7.4,7.3l0.4,0.8C8,8.5,8.2,8.9,8.3,8.9c0.1,0,4.8-8.2,5-8.7C13.3,0.1,13,0,12.4,0h-0.9L9.5,3.7z"/>
<path class="st1" d="M13.7,1.2c-1.9,3.4-4.5,8-4.7,8.3C8.8,9.9,8.9,10,9.3,10.8c0.3,0.6,0.5,0.7,0.6,0.6c0.1-0.1,1.3-2.3,2.6-4.7
	L15,2.2l1.2-0.1l1.2-0.1l-0.6-1L16.4,0h-1h-1L13.7,1.2z"/>
<path class="st1" d="M3.3,3.7L2.8,4.5l2.8,4.9l2.8,4.9h0.9c0.9,0,0.9,0,0.7-0.4c-0.1-0.2-1.3-2.3-2.6-4.6L5,5l0.5-1
	c0.3-0.5,0.5-1,0.5-1.1c0-0.1-0.5-0.1-1.2-0.1H3.7L3.3,3.7z"/>
<path class="st1" d="M15.6,3c-0.2,0.3-0.7,1.3-0.7,1.5c0,0.1,1.6,0.1,3.6,0.1c2,0,3.6-0.1,3.6-0.1c0-0.1-0.2-0.5-0.4-0.9l-0.5-0.8
	h-2.7C16.5,2.8,15.8,2.9,15.6,3z"/>
<path class="st1" d="M2.1,5.7C2,5.8,1.8,6.2,1.7,6.5L1.4,7.1l2,3.6l2,3.6l0.9,0c0.5,0,0.9,0,0.9-0.1c0-0.1-4.9-8.8-4.9-8.8
	C2.3,5.5,2.2,5.6,2.1,5.7z"/>
<path class="st1" d="M13.8,6.2L13.4,7l4.9,0.1c2.7,0,5,0,5,0c0.1,0-0.1-0.4-0.3-0.8l-0.3-0.7h-4.2h-4.2L13.8,6.2z"/>
<path class="st1" d="M0.5,8.7C0.2,9.1,0,9.5,0,9.6c0,0.1,0.6,1.2,1.3,2.5l1.3,2.3h0.9h1l-0.4-0.8c-0.2-0.4-1-1.8-1.8-3.2L0.9,7.9
	L0.5,8.7z"/>
<path class="st1" d="M12.4,8.7c-0.2,0.4-0.4,0.8-0.3,0.9c0,0.1,2.4,0.1,5.3,0.1h5.2l0.5,1c0.3,0.5,0.6,1,0.7,0.9
	c0.1,0,0.4-0.5,0.7-1l0.5-1l-0.5-0.8L24,8h-5.6h-5.6L12.4,8.7z"/>
<path class="st1" d="M14.7,10.7c0,0.1,1.1,2.1,2.4,4.4c1.4,2.4,2.5,4.5,2.5,4.7c0.1,0.2-0.1,0.8-0.5,1.3l-0.5,1h1.2h1.2l0.4-0.7
	c0.3-0.4,0.4-0.8,0.4-1c0-0.1-1.3-2.4-2.7-5l-2.7-4.8l-0.9,0C15.1,10.6,14.7,10.7,14.7,10.7z"/>
<path class="st1" d="M18.1,11.7c3.2,5.7,4.4,7.8,4.5,7.8c0.1,0,0.3-0.4,0.6-0.7l0.4-0.7l-1.3-2.2c-0.7-1.2-1.6-2.9-2.1-3.7l-0.8-1.5
	h-1h-0.9L18.1,11.7z"/>
<path class="st1" d="M20.4,10.7c0,0.1,3.5,6.3,3.6,6.3c0,0,0.3-0.4,0.5-0.8l0.5-0.8L23.6,13l-1.4-2.4l-0.9,0
	C20.9,10.6,20.4,10.7,20.4,10.7z"/>
<path class="st1" d="M0.5,14.2c-0.3,0.5-0.5,1-0.5,1.1c0,0.1,0.2,0.5,0.4,0.9L0.8,17h5.7h5.7l0.3-0.7c0.2-0.4,0.3-0.7,0.3-0.8
	c0-0.1-2.3-0.1-5.2-0.1H2.4l-0.5-0.8C1.1,13.1,1.1,13.1,0.5,14.2z"/>
<path class="st1" d="M12.4,18.2l-2.6,4.6H8.6c-0.7,0-1.2,0.1-1.2,0.1C7.4,23,7.7,23.5,8,24l0.5,1h1h1l2.8-4.9l2.8-4.9l-0.4-0.7
	c-0.2-0.4-0.5-0.7-0.5-0.7C15.1,13.7,13.8,15.7,12.4,18.2z"/>
<path class="st1" d="M14.1,20.4c-1.4,2.4-2.4,4.4-2.4,4.4c0,0.1,0.4,0.1,0.9,0.1c0.9,0,0.9,0,1.3-0.7c0.2-0.4,1.1-2,2-3.6l1.7-3
	L17.2,17c-0.2-0.4-0.4-0.7-0.5-0.8C16.6,16.2,15.4,18.1,14.1,20.4z"/>
<path class="st1" d="M1.4,18c0,0.2,0.8,1.4,1,1.6c0.1,0.1,2,0.1,4.2,0.1h4l0.5-0.8c0.2-0.4,0.4-0.8,0.4-0.9c0-0.1-2.3-0.1-5-0.1
	C3.7,17.9,1.4,17.9,1.4,18z"/>
<path class="st1" d="M16.4,21.3c-0.8,1.4-1.6,2.8-1.7,3.1L14.3,25l1-0.1l1-0.1l1.3-2.3l1.3-2.3l-0.3-0.8c-0.2-0.4-0.4-0.7-0.5-0.7
	C17.9,18.8,17.2,19.9,16.4,21.3z"/>
<path class="st1" d="M2.9,20.6c0,0.1,0.2,0.5,0.4,0.9l0.4,0.7h2.7h2.7l0.4-0.7c0.2-0.4,0.4-0.8,0.3-0.9C9.8,20.3,2.9,20.3,2.9,20.6z
	"/>
<g>
	<g>
		<g>
			<path class="st2" d="M61.3,10.4v1.4h5.2c0.3,0,0.6,0.1,0.8,0.3c0.2,0.2,0.3,0.5,0.3,0.8v1.8c0,0.3-0.1,0.6-0.3,0.8
				c-0.2,0.2-0.5,0.3-0.8,0.3h-5.7c-0.3,0-0.6-0.1-0.8-0.3c-0.2-0.2-0.3-0.5-0.3-0.8v-0.3l1.6-0.6v0.8H66v-1.6h-5.2
				c-0.3,0-0.6-0.1-0.8-0.3c-0.2-0.2-0.3-0.5-0.3-0.8v-1.5c0-0.3,0.1-0.6,0.3-0.8c0.2-0.2,0.5-0.3,0.8-0.3h5.7
				c0.3,0,0.6,0.1,0.8,0.3s0.3,0.5,0.3,0.8v0.9H66v-0.8L61.3,10.4L61.3,10.4z"/>
			<path class="st2" d="M76.5,9.5c0.2,0.2,0.3,0.5,0.3,0.8v4.3c0,0.3-0.1,0.6-0.3,0.8c-0.2,0.2-0.5,0.3-0.8,0.3h-5.7
				c-0.3,0-0.6-0.1-0.8-0.3c-0.2-0.2-0.3-0.5-0.3-0.8v-4.3c0-0.3,0.1-0.6,0.3-0.8s0.5-0.3,0.8-0.3h5.7C76.1,9.2,76.3,9.3,76.5,9.5z
				 M75.3,14.5v-4.1h-4.7v4.1H75.3z"/>
			<path class="st2" d="M79.8,10.4v1.5h5.2v1.2h-5.2v2.7h-1.6v-5.4c0-0.3,0.1-0.6,0.3-0.8s0.5-0.3,0.8-0.3h6.5v1.2H79.8z"/>
			<path class="st2" d="M94.4,10.4h-3.2v5.3h-1.6v-5.3h-3.1V9.2h7.9V10.4z"/>
		</g>
	</g>
	<g>
		
			<linearGradient id="SVGID_1_" gradientUnits="userSpaceOnUse" x1="44.9711" y1="24.499" x2="44.9711" y2="2.269" gradientTransform="matrix(1 0 0 -1 0 26)">
			<stop  offset="0" style="stop-color:#07D2BE"/>
			<stop  offset="0.5" style="stop-color:#02A0D0"/>
			<stop  offset="1" style="stop-color:#027FD9"/>
		</linearGradient>
		<path class="st3" d="M54.5,17.3l-1.5-1.2l1.5-1.2c0.3-0.3,0.3-0.8,0-1l-7.8-6.4l-0.1,0.6l-0.3,0.1l0,0l0,0l-0.4,0.2l6.6,5.4
			c0.6,0.6-0.1,1.1-0.5,1.4c-1-0.8-9-7.3-9.7-7.9l-1,0.8c0.7,0.6,8.8,7.2,9.7,7.9c-1.5,1.2-4.5,3.7-6,4.9c0,0-0.2-0.1-0.2-0.1h0
			c-0.4-0.3-3.8-3.1-4.3-3.5c-0.1-0.1-0.3-0.1-0.4-0.1l-4.2,0c-0.6,0-0.9,0.8-0.4,1.2l6.9,5.6c0.6,0.6,1.5-0.7,2-1l-1-0.8
			c-0.3,0.3-0.7,0.4-1,0.1l-4.8-3.9c0.3,0.1,2.2-0.1,2.5,0.1c0.5,0.4,2.8,2.2,3.2,2.6h0c1.1,0.9,2.3,1.9,3.4,2.8
			c0.2,0.2,0.6,0.2,0.8,0l6.9-5.7C54.8,18.1,54.8,17.6,54.5,17.3z M52.5,18.3c-0.2,0.1-4.9,4.1-5.1,4.1c-0.5,0.3-1-0.4-1.4-0.7
			c1.4-1.1,4.5-3.7,6-4.9C52.4,17.2,53.1,17.8,52.5,18.3z"/>
		
			<linearGradient id="SVGID_2_" gradientUnits="userSpaceOnUse" x1="45.7617" y1="24.499" x2="45.7617" y2="2.269" gradientTransform="matrix(1 0 0 -1 0 26)">
			<stop  offset="0" style="stop-color:#07D2BE"/>
			<stop  offset="0.5" style="stop-color:#02A0D0"/>
			<stop  offset="1" style="stop-color:#027FD9"/>
		</linearGradient>
		<path class="st4" d="M45.8,6.8c0.9,0,0.9,1.3,0,1.3C44.9,8.1,44.9,6.7,45.8,6.8 M45.8,6.1c-1.8,0-1.8,2.7,0,2.7
			C47.5,8.8,47.5,6.1,45.8,6.1L45.8,6.1z"/>
		
			<linearGradient id="SVGID_3_" gradientUnits="userSpaceOnUse" x1="45.703" y1="24.499" x2="45.703" y2="2.269" gradientTransform="matrix(1 0 0 -1 0 26)">
			<stop  offset="0" style="stop-color:#07D2BE"/>
			<stop  offset="0.5" style="stop-color:#02A0D0"/>
			<stop  offset="1" style="stop-color:#027FD9"/>
		</linearGradient>
		<path class="st5" d="M55.2,7l-6.9-5.6c-0.6-0.6-1.5,0.7-2,1l1,0.8c0.3-0.3,0.7-0.4,1-0.1l4.8,3.9c-0.3-0.1-2.2,0.1-2.5-0.1
			c-0.5-0.4-2.8-2.2-3.2-2.6h0C46.3,3.3,45,2.3,44,1.4c-0.2-0.2-0.6-0.2-0.8,0l-6.9,5.7c-0.3,0.3-0.3,0.8,0,1l1.5,1.2l-1.5,1.2
			c-0.3,0.3-0.3,0.8,0,1l7.7,6.2l0.8-1l-6.5-5.3c-0.6-0.6,0.1-1.1,0.5-1.4c1,0.8,9,7.3,9.7,7.9l1-0.8c-0.7-0.6-8.8-7.2-9.7-7.9
			c1.5-1.2,4.5-3.7,6-4.9c0,0,0.2,0.1,0.2,0.1h0c0.4,0.3,3.8,3.1,4.3,3.5c0.1,0.1,0.3,0.1,0.4,0.1l4.2,0C55.4,8.2,55.7,7.4,55.2,7z
			 M44.2,4.1c-1.1,0.9-4.3,3.5-5.4,4.4c-0.5-0.3-1.2-0.9-0.5-1.4l4.9-4c0.5-0.5,1.2,0.3,1.6,0.6L44.2,4.1z"/>
		
			<linearGradient id="SVGID_4_" gradientUnits="userSpaceOnUse" x1="44.9129" y1="24.499" x2="44.9129" y2="2.269" gradientTransform="matrix(1 0 0 -1 0 26)">
			<stop  offset="0" style="stop-color:#07D2BE"/>
			<stop  offset="0.5" style="stop-color:#02A0D0"/>
			<stop  offset="1" style="stop-color:#027FD9"/>
		</linearGradient>
		<path class="st6" d="M44.9,17.3c0.9,0,0.9,1.3,0,1.3C44,18.6,44,17.3,44.9,17.3 M44.9,16.6c-1.8,0-1.8,2.7,0,2.7
			C46.7,19.3,46.7,16.6,44.9,16.6L44.9,16.6z"/>
	</g>
	<g>
		<g>
			<path d="M96.6,10.4v1.4h5.2c0.3,0,0.6,0.1,0.8,0.3c0.2,0.2,0.3,0.5,0.3,0.8v1.8c0,0.3-0.1,0.6-0.3,0.8c-0.2,0.2-0.5,0.3-0.8,0.3
				h-5.7c-0.3,0-0.6-0.1-0.8-0.3c-0.2-0.2-0.3-0.5-0.3-0.8v-0.3l1.6-0.6v0.8h4.7v-1.6h-5.2c-0.3,0-0.6-0.1-0.8-0.3
				c-0.2-0.2-0.3-0.5-0.3-0.8v-1.5c0-0.3,0.1-0.6,0.3-0.8c0.2-0.2,0.5-0.3,0.8-0.3h5.7c0.3,0,0.6,0.1,0.8,0.3
				c0.2,0.2,0.3,0.5,0.3,0.8v0.9h-1.6v-0.8L96.6,10.4L96.6,10.4z"/>
			<path d="M106,15.7h-1.6V9.2h1.6V15.7z"/>
			<path d="M115,10.4h-3.2v5.3h-1.6v-5.3h-3.1V9.2h7.9L115,10.4L115,10.4z"/>
			<path d="M122.8,11.8v1.2h-5.2v1.6h6.3v1.2h-6.8c-0.3,0-0.6-0.1-0.8-0.3c-0.2-0.2-0.3-0.5-0.3-0.8v-4.3c0-0.3,0.1-0.6,0.3-0.8
				c0.2-0.2,0.5-0.3,0.8-0.3h6.5v1.2h-6.1v1.4L122.8,11.8L122.8,11.8z"/>
		</g>
		<g>
			
				<linearGradient id="SVGID_5_" gradientUnits="userSpaceOnUse" x1="98.9518" y1="15.818" x2="98.9518" y2="11.6168" gradientTransform="matrix(1 0 0 -1 0 26)">
				<stop  offset="0" style="stop-color:#07D2BE"/>
				<stop  offset="0.5" style="stop-color:#02A0D0"/>
				<stop  offset="1" style="stop-color:#027FD9"/>
			</linearGradient>
			<path class="st7" d="M96.6,10.4v1.4h5.2c0.3,0,0.6,0.1,0.8,0.3c0.2,0.2,0.3,0.5,0.3,0.8v1.8c0,0.3-0.1,0.6-0.3,0.8
				c-0.2,0.2-0.5,0.3-0.8,0.3h-5.7c-0.3,0-0.6-0.1-0.8-0.3c-0.2-0.2-0.3-0.5-0.3-0.8v-0.3l1.6-0.6v0.8h4.7v-1.6h-5.2
				c-0.3,0-0.6-0.1-0.8-0.3c-0.2-0.2-0.3-0.5-0.3-0.8v-1.5c0-0.3,0.1-0.6,0.3-0.8c0.2-0.2,0.5-0.3,0.8-0.3h5.7
				c0.3,0,0.6,0.1,0.8,0.3c0.2,0.2,0.3,0.5,0.3,0.8v0.9h-1.6v-0.8L96.6,10.4L96.6,10.4z"/>
			
				<linearGradient id="SVGID_6_" gradientUnits="userSpaceOnUse" x1="105.2243" y1="15.818" x2="105.2243" y2="11.6168" gradientTransform="matrix(1 0 0 -1 0 26)">
				<stop  offset="0" style="stop-color:#07D2BE"/>
				<stop  offset="0.5" style="stop-color:#02A0D0"/>
				<stop  offset="1" style="stop-color:#027FD9"/>
			</linearGradient>
			<path class="st8" d="M106,15.7h-1.6V9.2h1.6V15.7z"/>
			
				<linearGradient id="SVGID_7_" gradientUnits="userSpaceOnUse" x1="111.0884" y1="15.818" x2="111.0884" y2="11.6168" gradientTransform="matrix(1 0 0 -1 0 26)">
				<stop  offset="0" style="stop-color:#07D2BE"/>
				<stop  offset="0.5" style="stop-color:#02A0D0"/>
				<stop  offset="1" style="stop-color:#027FD9"/>
			</linearGradient>
			<path class="st9" d="M115,10.4h-3.2v5.3h-1.6v-5.3h-3.1V9.2h7.9L115,10.4L115,10.4z"/>
			
				<linearGradient id="SVGID_8_" gradientUnits="userSpaceOnUse" x1="119.9643" y1="15.818" x2="119.9643" y2="11.6168" gradientTransform="matrix(1 0 0 -1 0 26)">
				<stop  offset="0" style="stop-color:#07D2BE"/>
				<stop  offset="0.5" style="stop-color:#02A0D0"/>
				<stop  offset="1" style="stop-color:#027FD9"/>
			</linearGradient>
			<path class="st10" d="M122.8,11.8v1.2h-5.2v1.6h6.3v1.2h-6.8c-0.3,0-0.6-0.1-0.8-0.3c-0.2-0.2-0.3-0.5-0.3-0.8v-4.3
				c0-0.3,0.1-0.6,0.3-0.8c0.2-0.2,0.5-0.3,0.8-0.3h6.5v1.2h-6.1v1.4L122.8,11.8L122.8,11.8z"/>
		</g>
	</g>
</g>
</svg>
